<svg xmlns="http://www.w3.org/2000/svg" width="135.172" height="82.443" viewBox="0 0 135.172 82.443"><defs><style>.a{fill:#ff73a7;}.b{fill:#e3f2ff;}.c{fill:#343434;}</style></defs><path class="a" d="M391.338,99.937a5.934,5.934,0,0,0-5.928,5.928v5.8a1.978,1.978,0,0,0,1.979,1.979h7.9a1.978,1.978,0,0,0,1.979-1.979v-5.8a5.934,5.934,0,0,0-5.927-5.928Z" transform="translate(-283.735 -99.937)"/><path class="b" d="M92.489,71.785H1.978A1.977,1.977,0,0,1,0,69.807V6.408A6.414,6.414,0,0,1,6.405,0H88.06a6.416,6.416,0,0,1,6.408,6.408V8.721h21.268a6.484,6.484,0,0,1,6.376,5.5l.406,2.517,3.448,21.435,4.577,1.343a6.483,6.483,0,0,1,4.627,6.186v24.1a1.978,1.978,0,0,1-1.979,1.978Z" transform="translate(0 0.948)"/><path class="a" d="M387.751,306.159V322.51a1.978,1.978,0,0,1-1.979,1.979h-40.7a1.976,1.976,0,0,1-1.979-1.979V306.159Z" transform="translate(-252.579 -251.755)"/><path class="a" d="M94.468,306.159V322.51a1.978,1.978,0,0,1-1.979,1.979H1.979A1.978,1.978,0,0,1,0,322.51V306.159Z" transform="translate(0 -251.755)"/><path class="a" d="M334.164,306.159V322.51a1.978,1.978,0,0,1-1.979,1.979h-6.6a1.978,1.978,0,0,0,1.979-1.979V306.159Z" transform="translate(-239.696 -251.755)"/><path class="a" d="M81.691,174.06H73.468V165.9a1.5,1.5,0,0,0-1.5-1.5H63.541a1.5,1.5,0,0,0-1.5,1.5v8.159H53.882a1.5,1.5,0,0,0-1.5,1.5v8.389a1.5,1.5,0,0,0,1.5,1.5h8.161V193.6a1.5,1.5,0,0,0,1.5,1.5H71.97a1.5,1.5,0,0,0,1.5-1.5v-8.159h8.223a1.5,1.5,0,0,0,1.5-1.5v-8.389A1.5,1.5,0,0,0,81.691,174.06Z" transform="translate(-29.508 -147.396)"/><path class="a" d="M488.454,306.159V322.51a1.978,1.978,0,0,1-1.979,1.979h-6.6a1.979,1.979,0,0,0,1.979-1.979V306.159Z" transform="translate(-353.282 -251.755)"/><g transform="translate(19.514 63.026)"><ellipse class="c" cx="9.708" cy="9.708" rx="9.708" ry="9.708" transform="translate(87.667 0)"/><ellipse class="c" cx="9.708" cy="9.708" rx="9.708" ry="9.708" transform="translate(0 0)"/></g><path class="c" d="M409.7,188.413H387.22a1.809,1.809,0,0,1-1.81-1.81V168.788a1.809,1.809,0,0,1,1.81-1.81h19.034Z" transform="translate(-283.735 -149.292)"/></svg>