<svg xmlns="http://www.w3.org/2000/svg" width="137" height="135.513" viewBox="0 0 137 135.513"><defs><style>.a{fill:#343434;}.b{fill:#fff;}.c{fill:#ff73a7;}.d{fill:#0b5a9b;}</style></defs><g transform="translate(0.448)"><g transform="translate(0 0)"><path class="a" d="M5,34H16.633V80.531H5Z" transform="translate(6.781 46.008)"/><path class="a" d="M49,34H60.633V80.531H49Z" transform="translate(66.054 46.008)"/><g transform="translate(35.515 54.044)"><path class="b" d="M15,23H35.939V43.939H15Z" transform="translate(-15 -23)"/><path class="b" d="M35,23H55.939V43.939H35Z" transform="translate(11.531 -23)"/><path class="b" d="M15,33H35.939V53.939H15Z" transform="translate(-15 -9.735)"/><path class="b" d="M35,33H55.939V53.939H35Z" transform="translate(11.531 -9.735)"/></g><rect class="a" width="137" height="12" rx="2" transform="translate(-0.448 123.512)"/><rect class="a" width="135.85" height="11.774" rx="2" transform="translate(0.148 70.249)"/><path class="c" d="M35.939,40V50.469a10.469,10.469,0,1,1-20.939,0V40Z" transform="translate(20.323 53.801)"/><path class="d" d="M24.633,31.633h-6.98A4.653,4.653,0,0,1,13,26.98V24.653A4.653,4.653,0,0,1,17.653,20H38.592a4.653,4.653,0,0,1,4.653,4.653V26.98a4.653,4.653,0,0,1-4.653,4.653Z" transform="translate(17.655 26.873)"/><path class="c" d="M55.939,40V50.469a10.469,10.469,0,1,1-20.939,0V40Z" transform="translate(47.224 53.801)"/><path class="d" d="M44.633,31.633h-6.98A4.653,4.653,0,0,1,33,26.98V24.653A4.653,4.653,0,0,1,37.653,20H58.592a4.653,4.653,0,0,1,4.653,4.653V26.98a4.653,4.653,0,0,1-4.653,4.653Z" transform="translate(44.588 26.873)"/><path class="b" d="M75.837,4V17.959h-47.3a2.289,2.289,0,0,1-1.4-.465l-6.212-4.653a2.327,2.327,0,0,1,0-3.722l6.212-4.653A2.289,2.289,0,0,1,28.538,4Z" transform="translate(27.212 5.306)"/><path class="a" d="M79.225,15.123a8.143,8.143,0,0,1-8.143,8.143H57.309a5.1,5.1,0,0,0-4.839,3.49,5.1,5.1,0,0,1-4.839,3.49h-3.3A2.327,2.327,0,0,1,42,27.918V2.327A2.327,2.327,0,0,1,44.327,0h3.3a5.1,5.1,0,0,1,4.839,3.49,5.1,5.1,0,0,0,4.839,3.49H71.082a8.143,8.143,0,0,1,8.143,8.143Z" transform="translate(56.768 0)"/><path class="c" d="M32.286,21.342a8.143,8.143,0,1,1-16.286,0c0-4.02,3.892-9.709,6.282-12.838a2.327,2.327,0,0,1,3.7,0C28.393,11.633,32.286,17.321,32.286,21.342Z" transform="translate(21.657 10.067)"/></g></g></svg>