<svg xmlns="http://www.w3.org/2000/svg" width="136.873" height="145.817" viewBox="0 0 136.873 145.817"><defs><style>.a{fill:#e3f2ff;}.b{fill:#fff;}.c{fill:#ff73a7;}.d{fill:#57555c;}.e{fill:#2aa8e2;}.f{fill:#343434;}</style></defs><path class="a" d="M25.451,235.988v47.559H84.019l0,0,26.864-19.8V235.988Z" transform="translate(-22.675 -168.779)"/><path class="b" d="M366.59,301.945a19.933,19.933,0,0,1-7.3,27.231l-16.6,9.586-19.935-34.527,16.6-9.586A19.935,19.935,0,0,1,366.59,301.945Z" transform="translate(-235.308 -208.821)"/><path class="c" d="M252.7,335.023l19.935,34.527L254.714,379.9a19.934,19.934,0,0,1-19.935-34.527Z" transform="translate(-165.256 -239.609)"/><path class="b" d="M93.8,107.386l14.809,19.744a11.4,11.4,0,0,1,2.278,6.835v1.9H25.451v-1.9a11.4,11.4,0,0,1,2.278-6.835l14.809-19.744V96H93.8Z" transform="translate(-22.675 -68.656)"/><path class="d" d="M128.1,15.695v13.1a5.694,5.694,0,0,1-5.7,5.7H71.145a5.694,5.694,0,0,1-5.7-5.7v-13.1a5.694,5.694,0,0,1,5.7-5.7h51.261A5.694,5.694,0,0,1,128.1,15.695Z" transform="translate(-51.281 -7.151)"/><path class="b" d="M84.022,402.983l0,0H25.451v5.7a11.392,11.392,0,0,0,11.391,11.391H84.29l0,0Z" transform="translate(-22.675 -288.212)"/><path class="e" d="M118.545,131.69a2.848,2.848,0,1,0-2.848-2.848A2.849,2.849,0,0,0,118.545,131.69Z" transform="translate(-87.219 -90.112)"/><path class="e" d="M151.328,284.378h-8.543v-8.543a2.848,2.848,0,0,0-5.7,0v8.543h-8.543a2.848,2.848,0,0,0,0,5.7h8.543v8.543a2.848,2.848,0,0,0,5.7,0v-8.543h8.543a2.848,2.848,0,0,0,0-5.7Z" transform="translate(-94.371 -195.241)"/><path class="f" d="M118.4,83.362,106.833,90.04V65.31a14.34,14.34,0,0,0-2.848-8.543L89.746,37.781V29.7a8.557,8.557,0,0,0,5.7-8.054V8.543A8.553,8.553,0,0,0,86.9,0H35.637a8.553,8.553,0,0,0-8.544,8.543v13.1a8.558,8.558,0,0,0,5.7,8.054v8.084L18.549,56.768A14.34,14.34,0,0,0,15.7,65.31v55.154A14.255,14.255,0,0,0,29.941,134.7H75.709a22.76,22.76,0,0,0,30.947,8.054l34.528-19.935A22.782,22.782,0,0,0,118.4,83.362ZM75.372,111.92H21.4V70.057h79.74V93.328L83.873,103.3A22.614,22.614,0,0,0,75.372,111.92ZM32.789,8.543A2.851,2.851,0,0,1,35.636,5.7H86.9a2.851,2.851,0,0,1,2.848,2.848v13.1A2.851,2.851,0,0,1,86.9,24.491H35.637a2.851,2.851,0,0,1-2.848-2.848S32.789,8.543,32.789,8.543Zm5.126,31.9a2.848,2.848,0,0,0,.57-1.709V30.187H84.05v5.7H58.419a2.848,2.848,0,1,0,0,5.7H85.474l13.953,18.6a8.618,8.618,0,0,1,1.65,4.179H21.458a8.612,8.612,0,0,1,1.648-4.178ZM21.4,120.464v-2.876H73.138a22.82,22.82,0,0,0,.137,11.42H29.941A8.554,8.554,0,0,1,21.4,120.464Zm82.411,17.36a17.087,17.087,0,1,1-17.087-29.595L102.179,99.3,119.266,128.9Zm34.527-19.935L124.2,126.051l-17.087-29.6,14.137-8.161a17.087,17.087,0,1,1,17.087,29.595Z" transform="translate(-15.702)"/></svg>